# This file uses centimeters as units for non-parametric coordinates.

mtllib towerBigC.mtl
g default
v 0.561872 -0.012860 -0.124200
v 0.227251 -0.012860 -0.367316
v -0.186363 -0.012860 -0.367316
v -0.520984 -0.012860 -0.124200
v -0.648798 -0.012860 0.269170
v -0.520984 -0.012860 0.662541
v -0.186363 -0.012860 0.905657
v 0.227251 -0.012860 0.905657
v 0.561872 -0.012860 0.662540
v 0.689685 -0.012860 0.269170
v 0.020444 -0.012860 0.269170
v 0.547516 1.193019 0.196840
v 0.544123 1.126576 -0.240503
v 0.248996 0.886874 -0.390931
v -0.138722 0.767667 -0.339448
v -0.470934 0.814486 -0.105719
v -0.620747 1.009450 0.220978
v -0.407317 1.167894 0.448914
v -0.121469 1.430922 0.646425
v 0.104240 1.610027 0.602171
v 0.484119 1.590178 0.381073
v 0.633932 1.395214 0.054376
v 0.294097 1.162442 -0.065215
v 0.138694 1.036223 -0.144425
v 0.011053 1.202332 0.133922
v -0.065466 0.973452 -0.117316
v -0.240397 0.998106 0.005757
v -0.239619 1.128949 0.183558
v -0.228390 1.252235 0.312228
v -0.152650 1.350272 0.385664
v 0.087571 1.431212 0.385159
v 0.178406 1.376808 0.255991
v 0.257292 1.274147 0.083964
v 0.401076 1.293869 -0.399069
v 0.207835 1.136919 -0.497564
v 0.156285 1.204004 -0.385151
v 0.286765 1.309979 -0.318645
v -0.220075 0.965231 -0.494653
v -0.552286 1.012051 -0.260925
v -0.363582 1.038404 -0.159403
v -0.139267 1.006789 -0.317220
v -0.694065 1.076351 0.125653
v -0.576465 1.339699 0.389292
v -0.383004 1.477178 0.228184
v -0.493268 1.230256 -0.019009
v -0.247778 1.622273 0.578170
v 0.139940 1.741481 0.526687
v 0.023360 1.693389 0.304633
v -0.238434 1.612898 0.339395
v 0.402768 1.787740 0.225867
v 0.552580 1.592778 -0.100830
v 0.372525 1.459911 -0.057934
v 0.271368 1.591553 0.162657
vt 0.626409 0.064409
vt 0.548284 0.007647
vt 0.451716 0.007647
vt 0.373591 0.064409
vt 0.343750 0.156250
vt 0.373591 0.248091
vt 0.451716 0.304853
vt 0.548284 0.304853
vt 0.626409 0.248091
vt 0.656250 0.156250
vt 0.375000 0.312500
vt 0.400000 0.312500
vt 0.425000 0.312500
vt 0.450000 0.312500
vt 0.475000 0.312500
vt 0.500000 0.312500
vt 0.525000 0.312500
vt 0.550000 0.312500
vt 0.575000 0.312500
vt 0.600000 0.312500
vt 0.625000 0.312500
vt 0.500000 0.150000
vt 0.500000 0.837500
vt 0.656250 0.843750
vt 0.626409 0.935591
vt 0.548284 0.992353
vt 0.451716 0.992353
vt 0.373591 0.935591
vt 0.343750 0.843750
vt 0.373591 0.751909
vt 0.451716 0.695147
vt 0.548284 0.695147
vt 0.626409 0.751909
vt 0.656250 0.843750
vt 0.626409 0.935591
vt 0.548284 0.992353
vt 0.451716 0.992353
vt 0.373591 0.935591
vt 0.343750 0.843750
vt 0.373591 0.751909
vt 0.451716 0.695147
vt 0.548284 0.695147
vt 0.626409 0.751909
vt 0.656250 0.843750
vt 0.626409 0.935591
vt 0.548284 0.992353
vt 0.548284 0.992353
vt 0.626409 0.935591
vt 0.451716 0.992353
vt 0.373591 0.935591
vt 0.373591 0.935591
vt 0.451716 0.992353
vt 0.343750 0.843750
vt 0.373591 0.751909
vt 0.373591 0.751909
vt 0.343750 0.843750
vt 0.451716 0.695147
vt 0.548284 0.695147
vt 0.548284 0.695147
vt 0.451716 0.695147
vt 0.626409 0.751909
vt 0.656250 0.843750
vt 0.656250 0.843750
vt 0.626409 0.751909
vn 0.000000 -1.000000 0.000000
vn 0.000000 -1.000000 0.000000
vn 0.000000 -1.000000 0.000000
vn 0.000000 -1.000000 0.000000
vn 0.000000 -1.000000 0.000000
vn 0.000000 -1.000000 0.000000
vn 0.000000 -1.000000 0.000000
vn 0.000000 -1.000000 0.000000
vn 0.000000 -1.000000 0.000000
vn 0.000000 -1.000000 0.000000
vn 0.000000 -1.000000 0.000000
vn -0.315978 0.737511 -0.596854
vn -0.308058 0.748119 -0.587722
vn -0.312355 0.740241 -0.595381
vn -0.308057 0.748119 -0.587723
vn -0.317158 0.752620 -0.577038
vn -0.332165 0.733805 -0.592619
vn -0.322492 0.705907 -0.630630
vn -0.275479 0.739775 -0.613877
vn -0.286066 0.750113 -0.596236
vn -0.349296 0.738518 -0.576700
vn -0.333566 0.722273 -0.605852
vn 0.544953 -0.058459 -0.836426
vn 0.544953 -0.058459 -0.836426
vn 0.544953 -0.058459 -0.836426
vn 0.544953 -0.058459 -0.836426
vn -0.064885 0.005206 -0.997879
vn -0.064885 0.005206 -0.997879
vn -0.064885 0.005206 -0.997879
vn -0.064885 0.005206 -0.997879
vn -0.577947 0.058579 -0.813969
vn -0.577947 0.058579 -0.813969
vn -0.577947 0.058579 -0.813969
vn -0.577947 0.058579 -0.813969
vn -0.929469 0.033345 -0.367391
vn -0.929469 0.033345 -0.367391
vn -0.929469 0.033345 -0.367391
vn -0.929468 0.033345 -0.367391
vn -0.882755 0.111041 0.456524
vn -0.882755 0.111041 0.456524
vn -0.882755 0.111041 0.456524
vn -0.882755 0.111041 0.456524
vn -0.619107 0.179849 0.764435
vn -0.619107 0.179849 0.764435
vn -0.619107 0.179849 0.764435
vn -0.619107 0.179849 0.764435
vn 0.017425 0.180774 0.983370
vn 0.017425 0.180774 0.983370
vn 0.017425 0.180774 0.983370
vn 0.017425 0.180774 0.983370
vn 0.539214 0.182633 0.822127
vn 0.539214 0.182633 0.822127
vn 0.539214 0.182633 0.822127
vn 0.539214 0.182633 0.822127
vn 0.959418 0.088976 0.267582
vn 0.959418 0.088976 0.267582
vn 0.959418 0.088976 0.267582
vn 0.959418 0.088976 0.267582
vn 0.959418 0.088976 0.267582
vn 0.989836 0.014477 -0.141473
vn 0.989836 0.014477 -0.141473
vn 0.989836 0.014477 -0.141473
vn 0.989836 0.014477 -0.141473
vn 0.989836 0.014477 -0.141473
vn -0.308057 0.748119 -0.587724
vn -0.308057 0.748119 -0.587724
vn -0.308057 0.748119 -0.587724
vn -0.308057 0.748119 -0.587724
vn -0.307838 0.746431 -0.589980
vn -0.307838 0.746431 -0.589980
vn -0.307838 0.746431 -0.589980
vn -0.307838 0.746431 -0.589980
vn -0.017615 0.975250 -0.220402
vn -0.017615 0.975250 -0.220402
vn -0.017615 0.975250 -0.220402
vn -0.017615 0.975250 -0.220402
vn -0.304838 0.756499 -0.578604
vn -0.304838 0.756499 -0.578604
vn -0.304838 0.756499 -0.578604
vn -0.304838 0.756499 -0.578604
vn -0.709594 0.630924 -0.313706
vn -0.709594 0.630924 -0.313707
vn -0.709594 0.630924 -0.313707
vn -0.709594 0.630924 -0.313707
vn -0.603422 0.767275 -0.217187
vn -0.603422 0.767275 -0.217187
vn -0.603422 0.767275 -0.217187
vn -0.603422 0.767275 -0.217187
vn -0.299482 0.952836 -0.049131
vn -0.299482 0.952836 -0.049131
vn -0.299482 0.952836 -0.049131
vn -0.299482 0.952836 -0.049131
vn -0.309264 0.756673 -0.576023
vn -0.309264 0.756673 -0.576023
vn -0.309264 0.756673 -0.576023
vn -0.309264 0.756673 -0.576023
vn -0.563130 0.569953 -0.598363
vn -0.563130 0.569953 -0.598363
vn -0.563130 0.569953 -0.598363
vn -0.563130 0.569953 -0.598363
vn -0.297229 0.742406 -0.600407
vn -0.297228 0.742406 -0.600407
vn -0.297228 0.742406 -0.600407
vn -0.297228 0.742406 -0.600407
vn 0.585818 -0.234412 -0.775801
vn 0.585818 -0.234412 -0.775802
vn 0.585818 -0.234412 -0.775801
vn 0.585818 -0.234412 -0.775801
vn -0.928617 -0.266773 -0.257882
vn -0.928617 -0.266773 -0.257882
vn -0.928617 -0.266773 -0.257882
vn -0.928617 -0.266773 -0.257882
vn -0.692098 0.614909 0.378003
vn -0.692099 0.614909 0.378003
vn -0.692098 0.614909 0.378003
vn -0.692098 0.614909 0.378003
vn 0.425527 0.787255 0.446269
vn 0.425527 0.787255 0.446269
vn 0.425527 0.787255 0.446270
vn 0.425527 0.787255 0.446269
vn -0.494943 -0.653608 -0.572562
vn -0.494943 -0.653608 -0.572562
vn -0.494943 -0.653608 -0.572562
vn -0.494943 -0.653608 -0.572562
vn -0.572077 0.440190 0.692070
vn -0.572077 0.440190 0.692070
vn -0.572077 0.440190 0.692070
vn -0.572077 0.440190 0.692070
vn 0.200044 0.975748 0.088870
vn 0.200044 0.975748 0.088870
vn 0.200044 0.975748 0.088870
vn 0.200044 0.975748 0.088870
vn 0.924404 0.037390 -0.379576
vn 0.924404 0.037390 -0.379576
vn 0.924404 0.037390 -0.379576
vn 0.924404 0.037390 -0.379576
vn -0.686355 -0.255082 0.681066
vn -0.686355 -0.255082 0.681066
vn -0.686355 -0.255082 0.681066
vn -0.686355 -0.255082 0.681066
vn 0.308687 0.536345 0.785523
vn 0.308687 0.536345 0.785523
vn 0.308687 0.536345 0.785523
vn 0.308687 0.536345 0.785523
vn 0.713435 0.370018 -0.595061
vn 0.713435 0.370018 -0.595061
vn 0.713435 0.370018 -0.595061
vn 0.713435 0.370018 -0.595061
vn 0.167640 -0.768256 -0.617803
vn 0.167640 -0.768256 -0.617803
vn 0.167640 -0.768256 -0.617803
vn 0.167640 -0.768256 -0.617803
vn -0.048817 0.394821 0.917460
vn -0.048817 0.394821 0.917460
vn -0.048817 0.394821 0.917460
vn -0.048817 0.394821 0.917460
vn 0.961520 -0.038189 -0.272069
vn 0.961520 -0.038189 -0.272069
vn 0.961520 -0.038189 -0.272069
vn 0.961519 -0.038189 -0.272069
vn 0.006626 -0.233054 -0.972441
vn 0.006626 -0.233054 -0.972441
vn 0.006626 -0.233054 -0.972441
vn 0.006626 -0.233054 -0.972441
vn -0.910844 -0.397423 0.111440
vn -0.910844 -0.397423 0.111440
vn -0.910844 -0.397423 0.111440
vn -0.910844 -0.397423 0.111440
vn 0.877983 0.461476 0.127220
vn 0.877983 0.461476 0.127220
vn 0.877983 0.461476 0.127220
vn 0.877983 0.461476 0.127220
vn 0.179166 -0.612536 -0.769870
vn 0.179166 -0.612536 -0.769870
vn 0.179166 -0.612536 -0.769870
vn 0.179166 -0.612536 -0.769870
vn -0.857979 0.159138 -0.488412
vn -0.857979 0.159138 -0.488412
vn -0.857979 0.159138 -0.488412
vn -0.857979 0.159138 -0.488412
vn -0.654012 0.403966 0.639593
vn -0.654012 0.403966 0.639593
vn -0.654012 0.403966 0.639593
vn -0.654012 0.403966 0.639593
s 1
g mesh_towerBigC
usemtl initialShadingGroup
f 2/2/1 1/1/2 11/22/3
f 3/3/4 2/2/1 11/22/3
f 4/4/5 3/3/4 11/22/3
f 5/5/6 4/4/5 11/22/3
f 6/6/7 5/5/6 11/22/3
f 7/7/8 6/6/7 11/22/3
f 8/8/9 7/7/8 11/22/3
f 9/9/10 8/8/9 11/22/3
f 10/10/11 9/9/10 11/22/3
f 1/1/2 10/10/11 11/22/3
s 2
f 23/35/12 24/36/13 25/23/14
f 24/36/13 26/37/15 25/23/14
f 26/37/15 27/38/16 25/23/14
f 27/38/16 28/39/17 25/23/14
f 28/39/17 29/40/18 25/23/14
f 29/40/18 30/41/19 25/23/14
f 30/41/19 31/42/20 25/23/14
f 31/42/20 32/43/21 25/23/14
f 32/43/21 33/44/22 25/23/14
f 33/44/22 23/35/12 25/23/14
s off
f 2/12/23 14/26/24 13/25/25 1/11/26
f 3/13/27 15/27/28 14/26/29 2/12/30
f 4/14/31 16/28/32 15/27/33 3/13/34
f 5/15/35 17/29/36 16/28/37 4/14/38
f 6/16/39 18/30/40 17/29/41 5/15/42
f 7/17/43 19/31/44 18/30/45 6/16/46
f 8/18/47 20/32/48 19/31/49 7/17/50
f 9/19/51 21/33/52 20/32/53 8/18/54
f 12/24/55 22/34/56 21/33/57 9/19/58 10/20/59
f 1/21/60 13/25/61 22/34/62 12/24/63 10/20/64
f 34/45/65 35/46/66 36/47/67 37/48/68
f 14/26/69 15/27/70 26/37/71 24/36/72
f 38/49/73 39/50/74 40/51/75 41/52/76
f 16/28/77 17/29/78 28/39/79 27/38/80
f 42/53/81 43/54/82 44/55/83 45/56/84
f 18/30/85 19/31/86 30/41/87 29/40/88
f 46/57/89 47/58/90 48/59/91 49/60/92
f 20/32/93 21/33/94 32/43/95 31/42/96
f 50/61/97 51/62/98 52/63/99 53/64/100
f 22/34/101 13/25/102 23/35/103 33/44/104
f 13/25/105 14/26/106 35/46/107 34/45/108
f 14/26/109 24/36/110 36/47/111 35/46/112
f 24/36/113 23/35/114 37/48/115 36/47/116
f 23/35/117 13/25/118 34/45/119 37/48/120
f 15/27/121 16/28/122 39/50/123 38/49/124
f 16/28/125 27/38/126 40/51/127 39/50/128
f 27/38/129 26/37/130 41/52/131 40/51/132
f 26/37/133 15/27/134 38/49/135 41/52/136
f 17/29/137 18/30/138 43/54/139 42/53/140
f 18/30/141 29/40/142 44/55/143 43/54/144
f 29/40/145 28/39/146 45/56/147 44/55/148
f 28/39/149 17/29/150 42/53/151 45/56/152
f 19/31/153 20/32/154 47/58/155 46/57/156
f 20/32/157 31/42/158 48/59/159 47/58/160
f 31/42/161 30/41/162 49/60/163 48/59/164
f 30/41/165 19/31/166 46/57/167 49/60/168
f 21/33/169 22/34/170 51/62/171 50/61/172
f 22/34/173 33/44/174 52/63/175 51/62/176
f 33/44/177 32/43/178 53/64/179 52/63/180
f 32/43/181 21/33/182 50/61/183 53/64/184
