# author: headus 3D tools
#  using: ply2obj v1.9
#   from: uvlayout v2.10.00
# 72 vertices
v 0.5550000 -0.0560000 -0.4030000
v 0.2122841 -0.0560000 -0.6519968
v -0.2113370 -0.0560000 -0.6519968
v -0.5540529 -0.0560000 -0.4030000
v -0.6849590 -0.0560000 -0.0001120
v -0.5540529 -0.0560000 0.4027740
v -0.2113370 -0.0560000 0.6517721
v 0.2122841 -0.0560000 0.6517710
v 0.5550000 -0.0560000 0.4027740
v 0.6859059 -0.0560000 -0.0001120
v -0.4371530 1.0943109 -0.2959270
v -0.5934069 1.0008420 -0.1732051
v -0.6473198 0.9653998 0.0253660
v -0.5934069 1.0008420 0.2239339
v -0.4371530 1.0943109 0.3466570
v -0.2716530 1.2216011 0.3466570
v 0.0004741 -0.0560000 -0.0001120
v -0.3544030 1.1579562 0.0253660
v -0.3125380 0.7806669 -0.4657050
v -0.4983572 1.0633270 -0.4657050
v -0.5282700 0.6388470 -0.2781340
v -0.7140881 0.9215080 -0.2781340
v -0.6106710 0.5846769 0.0253660
v -0.7964900 0.8673381 0.0253660
v -0.5282690 0.6388470 0.3288630
v -0.7140881 0.9215080 0.3288630
v -0.3125380 0.7806669 0.5164360
v -0.4808800 1.0606798 0.5164360
v -0.0458810 0.9559650 0.5164360
v -0.1662479 1.1106101 0.5211090
v -0.5875339 1.2226461 -0.3130450
v -0.7214260 1.1196659 -0.1903230
v -0.6571500 1.2898640 -0.4657050
v -0.8617943 1.1324680 -0.2781340
v -0.7781322 1.0352582 0.0699010
v -0.7269890 1.0745930 0.2684700
v -0.9399609 1.0723480 0.0253660
v -0.8617943 1.1324680 0.3288630
v -0.5973540 1.2832540 0.4274290
v -0.4613030 1.3455990 0.4218740
v -0.6571500 1.2898640 0.5164360
v -0.4455243 1.3333470 0.5641950
v -0.2699399 0.5417809 0.5706620
v -0.5561880 0.4716910 0.3526449
v -0.6655260 0.4449199 -0.0001120
v -0.5561880 0.4716910 -0.3528711
v -0.2699399 0.5417809 -0.5708869
v 0.2756040 0.6200479 -0.2687950
v 0.3783132 0.6685671 0.0042400
v 0.3050160 0.6576190 0.3090069
v 0.0838830 0.6284160 0.5706620
v -0.2286230 0.2443519 0.5733510
v -0.5236638 0.2116710 0.3543070
v -0.6363601 0.1991880 -0.0001120
v -0.5236638 0.2116710 -0.3545330
v -0.2286230 0.2443519 -0.5735759
v 0.1360680 0.2847470 -0.5735768
v 0.4311090 0.3174270 -0.3545330
v 0.5438050 0.3299100 -0.0001120
v 0.4311090 0.3174270 0.3543070
v 0.1360680 0.2847470 0.5733500
v 0.0115390 0.7580020 -0.2751911
v 0.0710050 0.6252620 -0.4547570
v -0.1860920 0.7718230 -0.3913720
v -0.0967359 0.5841900 -0.5118920
v 0.2421460 0.7418740 -0.1396260
v 0.0640641 0.9081460 0.0289190
v -0.1051720 0.8855600 -0.1793340
v -0.2673550 0.8762060 -0.3604780
v 0.1491220 0.8287279 -0.0515840
v -0.0413580 0.8158140 -0.2317461
v -0.2079370 0.7998820 -0.3830671
# 157 normals
vn -0.491149 -0.322865 -0.808948
vn -0.491149 -0.322865 -0.808948
vn -0.485564 -0.331258 -0.808857
vn -0.488219 -0.327290 -0.808918
vn -0.794696 -0.522371 -0.308948
vn -0.794696 -0.522371 -0.308948
vn -0.794696 -0.522371 -0.308948
vn -0.794696 -0.522371 -0.308948
vn -0.794696 -0.522371 0.308948
vn -0.794696 -0.522371 0.308948
vn -0.788836 -0.531252 0.308887
vn -0.787310 -0.533358 0.308887
vn -0.489166 -0.307819 0.815998
vn -0.489166 -0.307819 0.815998
vn -0.489166 -0.307819 0.815998
vn -0.489166 -0.307819 0.815998
vn -0.002991 -0.012727 0.999908
vn -0.002991 -0.012727 0.999908
vn -0.013276 -0.036227 0.999237
vn -0.051486 -0.123451 0.990936
vn 0.000000 -1.000000 0.000000
vn 0.000000 -1.000000 0.000000
vn 0.000000 -1.000000 0.000000
vn 0.000000 -1.000000 0.000000
vn 0.000000 -1.000000 0.000000
vn 0.000000 -1.000000 0.000000
vn 0.000000 -1.000000 0.000000
vn 0.000000 -1.000000 0.000000
vn 0.000000 -1.000000 0.000000
vn 0.000000 -1.000000 0.000000
vn 0.000000 -1.000000 0.000000
vn -0.530916 0.846823 -0.030977
vn -0.544528 0.838613 -0.008118
vn -0.552127 0.833730 0.000000
vn -0.549228 0.835592 0.000000
vn -0.535158 0.844320 0.023469
vn -0.550632 0.834340 0.023286
vn -0.609595 0.792651 0.000000
vn 0.348715 0.283739 -0.893121
vn 0.273546 0.276567 -0.921168
vn 0.779222 0.363273 -0.510621
vn 0.783434 0.330403 -0.526155
vn -0.248611 0.227858 -0.941372
vn -0.403498 0.145913 -0.903162
vn -0.774767 0.189373 -0.603156
vn -0.804401 0.057590 -0.591253
vn -0.219618 0.851889 0.475279
vn -0.219618 0.851889 0.475279
vn -0.219618 0.851889 0.475279
vn -0.219618 0.851889 0.475279
vn -0.984069 0.177715 0.000000
vn -0.999145 0.040743 0.000000
vn -0.549258 0.835592 0.000000
vn -0.549258 0.835592 0.000000
vn -0.774767 0.189373 0.603156
vn -0.804401 0.057590 0.591253
vn 0.282244 0.924495 -0.255844
vn 0.282244 0.924495 -0.255844
vn 0.282244 0.924495 -0.255844
vn 0.282244 0.924495 -0.255844
vn -0.248611 0.227858 0.941372
vn -0.295764 0.109107 0.948971
vn -0.530550 0.847067 0.030794
vn -0.530550 0.847067 0.030794
vn 0.348715 0.283739 0.893121
vn 0.331319 0.218214 0.917903
vn -0.287493 0.957181 -0.031343
vn -0.287493 0.957181 -0.031343
vn -0.287493 0.957181 -0.031343
vn -0.287493 0.957181 -0.031343
vn 0.783404 0.330403 0.526155
vn 0.777391 0.328115 0.536501
vn 0.937466 0.347922 0.000000
vn 0.922359 0.385918 -0.011323
vn 0.340963 0.494842 0.799182
vn 0.340963 0.494842 0.799182
vn 0.340963 0.494842 0.799182
vn 0.340963 0.494842 0.799182
vn 0.739394 0.633095 -0.228835
vn 0.739394 0.633095 -0.228835
vn 0.739394 0.633095 -0.228835
vn 0.739394 0.633095 -0.228835
vn -0.481536 -0.337331 -0.808735
vn -0.481536 -0.337331 -0.808735
vn -0.489562 -0.368278 0.790301
vn -0.489562 -0.368278 0.790301
vn -0.489562 -0.368278 0.790301
vn -0.489562 -0.368278 0.790301
vn 0.388268 0.881432 -0.268602
vn 0.388268 0.881432 -0.268602
vn 0.388268 0.881432 -0.268602
vn 0.388268 0.881432 -0.268602
vn 0.089880 0.246078 -0.964994
vn 0.089880 0.246078 -0.964994
vn 0.089880 0.246078 -0.964994
vn 0.089880 0.246078 -0.964994
vn -0.779161 -0.545352 0.308735
vn -0.779161 -0.545352 0.308735
vn 0.486388 0.355735 0.797961
vn 0.486388 0.355735 0.797961
vn 0.486388 0.355735 0.797961
vn 0.486388 0.355735 0.797961
vn -0.184398 0.265519 -0.946225
vn -0.184398 0.265519 -0.946225
vn -0.184398 0.265519 -0.946225
vn -0.184398 0.265519 -0.946225
vn -0.759476 -0.541476 -0.360343
vn -0.759476 -0.541476 -0.360343
vn -0.759476 -0.541476 -0.360343
vn -0.759476 -0.541476 -0.360343
vn -0.069035 -0.163401 0.984130
vn -0.069035 -0.163401 0.984130
vn 0.605231 0.792315 0.076665
vn 0.605231 0.792315 0.076665
vn 0.605231 0.792315 0.076665
vn 0.605231 0.792315 0.076665
vn -0.296100 0.049380 0.953794
vn -0.344717 0.153849 0.925899
vn -0.804065 0.181163 0.566227
vn -0.818684 0.006012 0.574071
vn -0.999481 0.027193 -0.016450
vn -0.955991 0.290911 0.035982
vn -0.810200 0.056949 -0.583349
vn -0.824971 0.311878 -0.471098
vn -0.626320 0.038668 -0.778581
vn -0.671977 0.279467 -0.685650
vn 0.239425 0.129921 0.962125
vn -0.070439 0.166850 0.983458
vn 0.825490 0.459226 -0.328023
vn 0.894555 0.446103 -0.025606
vn 0.793231 0.317494 0.519410
vn 0.613654 0.663950 -0.427089
vn 0.599188 0.662791 -0.448941
vn 0.509400 0.545657 -0.665324
vn 0.669902 0.541171 -0.508118
vn 0.312519 0.343130 -0.885644
vn 0.160960 0.395562 -0.904169
vn 0.124000 0.205182 -0.970732
vn 0.305744 0.640206 -0.704694
vn 0.511109 0.776689 -0.368064
vn 0.646432 0.752884 -0.122993
vn 0.570256 0.820271 -0.043917
vn 0.508545 0.764848 -0.395318
vn 0.359763 0.487457 -0.795428
vn 0.357016 0.759781 -0.543185
vn 0.531221 0.805408 -0.262589
vn 0.527040 0.550296 -0.647561
vn 0.363548 0.362266 -0.858146
vn 0.557682 0.419062 -0.716413
vn 0.820759 0.560123 0.111579
vn 0.737899 0.671336 0.069065
vn 0.573857 0.817585 0.047214
vn 0.498444 0.821583 0.276476
vn 0.505951 0.862388 0.013398
vn 0.755936 0.607428 0.243759
vn 0.413355 0.764481 -0.494415
vn 0.468199 0.672771 -0.572636
# 100 uv coords
vt 0.593962 0.499193
vt 0.570694 0.473358
vt 0.593130 0.814550
vt 0.542575 0.434297
vt 0.569784 0.841533
vt 0.558388 0.771297
vt 0.654148 0.593294
vt 0.668623 0.553321
vt 0.799625 0.603108
vt 0.809179 0.589784
vt 0.651204 0.553368
vt 0.534986 0.877090
vt 0.523649 0.797992
vt 0.537486 0.722830
vt 0.640651 0.589899
vt 0.773622 0.579839
vt 0.779442 0.561756
vt 0.247110 0.658957
vt 0.482144 0.831419
vt 0.487331 0.747154
vt 0.715918 0.562732
vt 0.743497 0.560250
vt 0.741472 0.549850
vt 0.436328 0.777706
vt 0.719440 0.542249
vt 0.558329 0.569098
vt 0.555646 0.542248
vt 0.541412 0.605694
vt 0.543400 0.562188
vt 0.516602 0.642139
vt 0.524646 0.596081
vt 0.537912 0.560438
vt 0.521204 0.511921
vt 0.498800 0.632962
vt 0.511000 0.589547
vt 0.502843 0.536256
vt 0.484617 0.473103
vt 0.462905 0.698142
vt 0.477800 0.621431
vt 0.485546 0.559641
vt 0.454879 0.647794
vt 0.403464 0.716025
vt 0.459670 0.598434
vt 0.435448 0.521148
vt 0.391405 0.647956
vt 0.402514 0.580517
vt 0.124464 0.658958
vt 0.147888 0.586869
vt 0.209210 0.542314
vt 0.147889 0.731047
vt 0.285009 0.542314
vt 0.209211 0.775600
vt 0.346332 0.586867
vt 0.285010 0.775599
vt 0.369755 0.658956
vt 0.346332 0.731045
vt 0.604363 0.575602
vt 0.599782 0.590057
vt 0.631397 0.580835
vt 0.615993 0.710098
vt 0.592888 0.699953
vt 0.566227 0.717198
vt 0.627458 0.547811
vt 0.665747 0.586826
vt 0.614170 0.646756
vt 0.601780 0.736676
vt 0.645809 0.472164
vt 0.677041 0.539311
vt 0.381140 0.808946
vt 0.336877 0.735056
vt 0.382447 0.487211
vt 0.446117 0.433054
vt 0.649523 0.711733
vt 0.644888 0.766909
vt 0.673063 0.679669
vt 0.628217 0.442684
vt 0.319727 0.648249
vt 0.439390 0.867031
vt 0.336192 0.561016
vt 0.514677 0.393306
vt 0.678711 0.815347
vt 0.631779 0.856260
vt 0.602719 0.402028
vt 0.619033 0.884109
vt 0.501513 0.914069
vt 0.588598 0.918874
vt 0.583192 0.359422
vt 0.563316 0.957856
vt 0.695218 0.548976
vt 0.677479 0.612776
vt 0.624029 0.600023
vt 0.641399 0.533959
vt 0.766873 0.527873
vt 0.764375 0.577122
vt 0.680356 0.595580
vt 0.699080 0.526425
vt 0.837697 0.579476
vt 0.803366 0.621709
vt 0.747552 0.580104
vt 0.785895 0.533248
# 80 polygons
usemtl initialShadingGroup
s 1
g mesh_towerSimpleC
f 19/27/1 21/1/2 22/63/3 20/57/4
s off
f 21/1/5 23/67/6 24/68/7 22/63/8
s 2
f 23/82/9 25/3/10 26/74/11 24/81/12
s off
f 25/3/13 27/6/14 28/66/15 26/74/16
s 3
f 27/6/17 29/14/18 30/62/19 28/66/20
s 4
f 2/51/21 1/53/22 17/18/23
f 3/49/24 2/51/21 17/18/23
f 4/48/25 3/49/24 17/18/23
f 5/47/26 4/48/25 17/18/23
f 6/50/27 5/47/26 17/18/23
f 7/52/28 6/50/27 17/18/23
f 8/54/29 7/52/28 17/18/23
f 9/56/30 8/54/29 17/18/23
f 10/55/31 9/56/30 17/18/23
f 1/53/22 10/55/31 17/18/23
s 5
f 11/58/32 12/59/33 18/65/34
f 12/59/33 13/64/35 18/65/34
f 13/75/35 14/73/36 18/65/34
f 14/73/36 15/60/37 18/65/34
f 15/60/37 16/61/38 18/65/34
s 6
f 2/71/39 57/44/40 58/46/41 1/79/42
f 3/72/43 56/37/44 57/44/40 2/71/39
f 4/80/45 55/4/46 56/37/44 3/72/43
s off
f 32/9/47 31/16/48 33/17/49 34/10/50
s 6
f 5/87/51 54/83/52 55/4/46 4/80/45
s 5
f 13/64/35 12/59/33 22/63/53 24/68/54
s 6
f 6/85/55 53/12/56 54/86/52 5/88/51
s off
f 36/15/57 35/11/58 37/8/59 38/7/60
s 6
f 7/78/61 52/19/62 53/12/56 6/85/55
s 5
f 15/60/37 14/73/36 26/74/63 28/66/64
s 6
f 8/69/65 61/24/66 52/19/62 7/78/61
s off
f 40/25/67 39/23/68 41/22/69 42/21/70
s 6
f 9/70/71 60/42/72 61/24/66 8/69/65
f 10/77/73 59/45/74 60/42/72 9/70/71
f 1/79/42 58/46/41 59/45/74 10/77/73
s off
f 12/98/75 11/99/76 31/16/77 32/9/78
f 11/99/79 20/100/80 33/17/81 31/16/82
s 1
f 20/100/4 22/97/3 34/10/83 33/17/84
s off
f 22/97/85 12/98/86 32/9/87 34/10/88
f 14/91/89 13/92/90 35/11/91 36/15/92
f 13/92/93 24/89/94 37/8/95 35/11/96
s 2
f 24/89/12 26/90/11 38/7/97 37/8/98
s off
f 26/90/99 14/91/100 36/15/101 38/7/102
f 16/96/103 15/93/104 39/23/105 40/25/106
f 15/93/107 28/94/108 41/22/109 39/23/110
s 3
f 28/94/20 30/95/19 42/21/111 41/22/112
s off
f 30/95/113 16/96/114 40/25/115 42/21/116
s 6
f 43/13/117 27/6/118 25/3/119 44/5/120
f 45/84/121 44/5/120 25/3/119 23/82/122
f 46/2/123 45/76/121 23/67/122 21/1/124
f 47/33/125 46/2/123 21/1/124 19/27/126
f 43/13/117 51/20/127 29/14/128 27/6/118
f 52/19/62 43/13/117 44/5/120 53/12/56
f 54/86/52 53/12/56 44/5/120 45/84/121
f 55/4/46 54/83/52 45/76/121 46/2/123
f 56/37/44 55/4/46 46/2/123 47/33/125
f 59/45/74 58/46/41 48/43/129 49/41/130
f 60/42/72 59/45/74 49/41/130 50/38/131
f 61/24/66 60/42/72 50/38/131 51/20/127
f 52/19/62 61/24/66 51/20/127 43/13/117
s 8
f 11/58/132 69/26/133 19/27/134 20/57/135
f 47/33/136 65/36/137 56/37/138
f 19/27/134 64/32/139 65/36/137 47/33/136
f 18/65/140 16/61/141 67/30/142 68/28/143
f 63/40/144 62/35/145 66/39/146 48/43/147
f 57/44/148 63/40/144 48/43/147 58/46/149
f 18/65/140 68/28/143 69/26/133 11/58/132
f 65/36/137 64/32/139 62/35/145 63/40/144
f 56/37/138 65/36/137 63/40/144 57/44/148
f 29/14/150 67/30/142 16/61/141 30/62/151
f 48/43/147 66/39/146 49/41/152
f 50/38/153 70/34/154 67/30/142 51/20/155
f 68/28/143 67/30/142 70/34/154 71/31/156
f 69/26/133 68/28/143 71/31/156 72/29/157
f 19/27/134 69/26/133 72/29/157
f 51/20/155 67/30/142 29/14/150
f 66/39/146 70/34/154 50/38/153 49/41/152
f 71/31/156 70/34/154 66/39/146 62/35/145
f 72/29/157 71/31/156 62/35/145 64/32/139
f 19/27/134 72/29/157 64/32/139
# h3dt: 72 100 157 80
