# author: headus 3D tools
#  using: ply2obj v1.9
#   from: uvlayout v2.10.00
# 82 vertices
v 0.5620000 -0.0130000 -0.1260000
v 0.2273790 -0.0130000 -0.3691170
v -0.1862350 -0.0130000 -0.3691170
v -0.5208558 -0.0130000 -0.1260000
v -0.6486700 -0.0130000 0.2673699
v -0.5208558 -0.0130000 0.6607400
v -0.1862350 -0.0130000 0.9038569
v 0.2273790 -0.0130000 0.9038569
v 0.5620000 -0.0130000 0.6607400
v 0.6898129 -0.0130000 0.2673699
v 0.3349300 1.9808482 0.0389749
v 0.1406460 1.9808482 -0.1021811
v -0.0995030 1.9808482 -0.1021811
v -0.2937870 1.9808482 0.0389749
v -0.3679970 1.9808482 0.2673699
v -0.2937870 1.9808482 0.4957650
v -0.0995030 1.9808482 0.6369210
v 0.1406460 1.9808482 0.6369210
v 0.3349300 1.9808482 0.4957650
v 0.4091400 1.9808482 0.2673699
v 0.0205720 -0.0130000 0.2673699
v 0.4273110 2.1241752 -0.0281441
v 0.1759331 2.1241752 -0.2107810
v -0.1347890 2.1241752 -0.2107810
v -0.3861669 2.1241752 -0.0281430
v -0.4821853 2.1241752 0.2673699
v -0.3861669 2.1241752 0.5628839
v -0.1347890 2.1241752 0.7455210
v 0.1759331 2.1241752 0.7455210
v 0.4273110 2.1241752 0.5628839
v 0.5233290 2.1241752 0.2673699
v 0.4273110 2.7764260 -0.0281441
v 0.1759331 2.7764260 -0.2107810
v -0.1347890 2.7764260 -0.2107810
v -0.3861669 2.7764260 -0.0281430
v -0.4821853 2.7764260 0.2673699
v -0.3861669 2.7764260 0.5628839
v -0.1347890 2.7764260 0.7455210
v 0.1759331 2.7764260 0.7455210
v 0.4273110 2.7764260 0.5628830
v 0.5233290 2.7764260 0.2673699
v 0.5558071 2.9848002 -0.1215011
v 0.2250140 2.9848002 -0.3618370
v -0.1838700 2.9848002 -0.3618370
v -0.5146631 2.9848002 -0.1215011
v -0.6410150 2.9848002 0.2673699
v -0.5146631 2.9848002 0.6562420
v -0.1838700 2.9848002 0.8965770
v 0.2250140 2.9848002 0.8965770
v 0.5558071 2.9848002 0.6562409
v 0.6821589 2.9848002 0.2673699
v 0.3819710 2.9848002 0.0047979
v 0.1586140 2.9848002 -0.1574810
v 0.0205720 2.9848002 0.2673699
v -0.1174710 2.9848002 -0.1574800
v -0.3408270 2.9848002 0.0047979
v -0.4261430 2.9848002 0.2673699
v -0.3408270 2.9848002 0.5299420
v -0.1174710 2.9848002 0.6922210
v 0.1586140 2.9848002 0.6922210
v 0.3819710 2.9848002 0.5299420
v 0.4672860 2.9848002 0.2673699
v 0.5558071 3.2488812 -0.1215011
v 0.2250140 3.2488812 -0.3618370
v 0.1586140 3.2488812 -0.1574800
v 0.3819710 3.2488812 0.0047979
v -0.1838700 3.2488812 -0.3618370
v -0.5146631 3.2488812 -0.1215011
v -0.3408270 3.2488812 0.0047979
v -0.1174710 3.2488812 -0.1574800
v -0.6410150 3.2488812 0.2673699
v -0.5146631 3.2488812 0.6562420
v -0.3408270 3.2488812 0.5299420
v -0.4261430 3.2488812 0.2673699
v -0.1838700 3.2488812 0.8965770
v 0.2250140 3.2488812 0.8965770
v 0.1586140 3.2488812 0.6922210
v -0.1174710 3.2488812 0.6922210
v 0.5558071 3.2488812 0.6562409
v 0.6821589 3.2488812 0.2673699
v 0.4672860 3.2488812 0.2673699
v 0.3819710 3.2488812 0.5299420
# 282 normals
vn 0.582525 0.132668 -0.801837
vn 0.582525 0.132668 -0.801837
vn 0.585943 0.078252 -0.806507
vn 0.585943 0.078252 -0.806507
vn 0.000000 0.132668 -0.991088
vn 0.000000 0.132668 -0.991088
vn 0.000000 0.078252 -0.996856
vn 0.000000 0.078252 -0.996856
vn -0.582525 0.132668 -0.801837
vn -0.582525 0.132668 -0.801837
vn -0.585943 0.078252 -0.806507
vn -0.585943 0.078252 -0.806507
vn -0.942623 0.132668 -0.306263
vn -0.942623 0.132668 -0.306263
vn -0.948056 0.078252 -0.308002
vn -0.948056 0.078252 -0.308002
vn -0.942623 0.132668 0.306263
vn -0.942623 0.132668 0.306263
vn -0.948056 0.078252 0.308002
vn -0.948056 0.078252 0.308002
vn -0.582525 0.132668 0.801837
vn -0.582525 0.132668 0.801837
vn -0.585943 0.078252 0.806507
vn -0.585943 0.078252 0.806507
vn 0.000000 0.132668 0.991088
vn 0.000000 0.132668 0.991088
vn 0.000000 0.078252 0.996856
vn 0.000000 0.078252 0.996856
vn 0.582525 0.132668 0.801837
vn 0.582525 0.132668 0.801837
vn 0.585943 0.078252 0.806507
vn 0.585943 0.078252 0.806507
vn 0.942623 0.132668 0.306263
vn 0.942623 0.132668 0.306263
vn 0.948056 0.078252 0.308002
vn 0.948056 0.078252 0.308002
vn 0.942623 0.132668 -0.306263
vn 0.942623 0.132668 -0.306263
vn 0.948056 0.078252 -0.308002
vn 0.948056 0.078252 -0.308002
vn 0.000000 -1.000000 0.000000
vn 0.000000 -1.000000 0.000000
vn 0.000000 -1.000000 0.000000
vn 0.000000 -1.000000 0.000000
vn 0.000000 -1.000000 0.000000
vn 0.000000 -1.000000 0.000000
vn 0.000000 -1.000000 0.000000
vn 0.000000 -1.000000 0.000000
vn 0.000000 -1.000000 0.000000
vn 0.000000 -1.000000 0.000000
vn 0.000000 -1.000000 0.000000
vn 0.000000 1.000000 0.000000
vn 0.000000 1.000000 0.000000
vn 0.000000 1.000000 0.000000
vn 0.000000 1.000000 0.000000
vn 0.000000 1.000000 0.000000
vn 0.000000 1.000000 0.000000
vn 0.000000 1.000000 0.000000
vn 0.000000 1.000000 0.000000
vn 0.000000 1.000000 0.000000
vn 0.000000 1.000000 0.000000
vn 0.000000 1.000000 0.000000
vn 0.468473 -0.603858 -0.644754
vn 0.468473 -0.603858 -0.644754
vn 0.000000 -0.603858 -0.796954
vn 0.000000 -0.603858 -0.796954
vn -0.468473 -0.603858 -0.644754
vn -0.468473 -0.603858 -0.644754
vn -0.757950 -0.603858 -0.246231
vn -0.757950 -0.603858 -0.246231
vn -0.757950 -0.603858 0.246231
vn -0.757950 -0.603858 0.246231
vn -0.468473 -0.603858 0.644754
vn -0.468473 -0.603858 0.644754
vn 0.000000 -0.603858 0.796954
vn 0.000000 -0.603858 0.796954
vn 0.468473 -0.603858 0.644754
vn 0.468473 -0.603858 0.644754
vn 0.757950 -0.603858 0.246231
vn 0.757950 -0.603858 0.246231
vn 0.757950 -0.603858 -0.246231
vn 0.757950 -0.603858 -0.246231
vn 0.587774 0.000000 -0.808948
vn 0.587774 0.000000 -0.808948
vn 0.587774 0.000000 -0.808948
vn 0.587774 0.000000 -0.808948
vn 0.000000 0.000000 -1.000000
vn 0.000000 0.000000 -1.000000
vn 0.000000 0.000000 -1.000000
vn 0.000000 0.000000 -1.000000
vn -0.587774 0.000000 -0.808948
vn -0.587774 0.000000 -0.808948
vn -0.587774 0.000000 -0.808948
vn -0.587774 0.000000 -0.808948
vn -0.951047 0.000000 -0.308948
vn -0.951047 0.000000 -0.308948
vn -0.951047 0.000000 -0.308948
vn -0.951047 0.000000 -0.308948
vn -0.951047 0.000000 0.308948
vn -0.951047 0.000000 0.308948
vn -0.951047 0.000000 0.308948
vn -0.951047 0.000000 0.308948
vn -0.587774 0.000000 0.808948
vn -0.587774 0.000000 0.808948
vn -0.587774 0.000000 0.808948
vn -0.587774 0.000000 0.808948
vn 0.000000 0.000000 1.000000
vn 0.000000 0.000000 1.000000
vn 0.000000 0.000000 1.000000
vn 0.000000 0.000000 1.000000
vn 0.587774 0.000000 0.808948
vn 0.587774 0.000000 0.808948
vn 0.587774 0.000000 0.808948
vn 0.587774 0.000000 0.808948
vn 0.951047 0.000000 0.308948
vn 0.951047 0.000000 0.308948
vn 0.951047 0.000000 0.308948
vn 0.951047 0.000000 0.308948
vn 0.951047 0.000000 -0.308948
vn 0.951047 0.000000 -0.308948
vn 0.951047 0.000000 -0.308948
vn 0.951047 0.000000 -0.308948
vn 0.475829 -0.586858 -0.654947
vn 0.475829 -0.586858 -0.654947
vn 0.475829 -0.586858 -0.654947
vn 0.475829 -0.586858 -0.654947
vn 0.000000 -0.586858 -0.809620
vn 0.000000 -0.586858 -0.809620
vn 0.000000 -0.586858 -0.809620
vn 0.000000 -0.586858 -0.809620
vn -0.475829 -0.586858 -0.654947
vn -0.475829 -0.586858 -0.654947
vn -0.475829 -0.586858 -0.654947
vn -0.475829 -0.586858 -0.654947
vn -0.769944 -0.586858 -0.250107
vn -0.769944 -0.586858 -0.250107
vn -0.769944 -0.586858 -0.250107
vn -0.769944 -0.586858 -0.250107
vn -0.769944 -0.586858 0.250107
vn -0.769944 -0.586858 0.250107
vn -0.769944 -0.586858 0.250107
vn -0.769944 -0.586858 0.250107
vn -0.475829 -0.586858 0.654947
vn -0.475829 -0.586858 0.654947
vn -0.475829 -0.586858 0.654947
vn -0.475829 -0.586858 0.654947
vn 0.000000 -0.586858 0.809620
vn 0.000000 -0.586858 0.809620
vn 0.000000 -0.586858 0.809620
vn 0.000000 -0.586858 0.809620
vn 0.475829 -0.586858 0.654947
vn 0.475829 -0.586858 0.654947
vn 0.475829 -0.586858 0.654947
vn 0.475829 -0.586858 0.654947
vn 0.769944 -0.586858 0.250107
vn 0.769944 -0.586858 0.250107
vn 0.769944 -0.586858 0.250107
vn 0.769944 -0.586858 0.250107
vn 0.769944 -0.586858 -0.250107
vn 0.769944 -0.586858 -0.250107
vn 0.769944 -0.586858 -0.250107
vn 0.769944 -0.586858 -0.250107
vn 0.000000 1.000000 0.000000
vn 0.000000 1.000000 0.000000
vn 0.000000 1.000000 0.000000
vn 0.000000 1.000000 0.000000
vn 0.000000 1.000000 0.000000
vn 0.000000 1.000000 0.000000
vn 0.000000 1.000000 0.000000
vn 0.000000 1.000000 0.000000
vn 0.000000 1.000000 0.000000
vn 0.000000 1.000000 0.000000
vn 0.000000 1.000000 0.000000
vn 0.000000 1.000000 0.000000
vn 0.000000 1.000000 0.000000
vn 0.000000 1.000000 0.000000
vn 0.000000 1.000000 0.000000
vn 0.000000 1.000000 0.000000
vn 0.000000 1.000000 0.000000
vn 0.000000 1.000000 0.000000
vn 0.000000 1.000000 0.000000
vn 0.000000 1.000000 0.000000
vn 0.000000 1.000000 0.000000
vn 0.000000 1.000000 0.000000
vn 0.000000 1.000000 0.000000
vn 0.000000 1.000000 0.000000
vn 0.000000 1.000000 0.000000
vn 0.000000 1.000000 0.000000
vn 0.000000 1.000000 0.000000
vn 0.000000 1.000000 0.000000
vn 0.000000 1.000000 0.000000
vn 0.000000 1.000000 0.000000
vn 0.000000 1.000000 0.000000
vn 0.000000 1.000000 0.000000
vn 0.000000 1.000000 0.000000
vn 0.000000 1.000000 0.000000
vn 0.000000 1.000000 0.000000
vn 0.000000 1.000000 0.000000
vn 0.000000 1.000000 0.000000
vn 0.000000 1.000000 0.000000
vn 0.000000 1.000000 0.000000
vn 0.000000 1.000000 0.000000
vn 0.587774 0.000000 -0.808948
vn 0.587774 0.000000 -0.808948
vn 0.587774 0.000000 -0.808948
vn 0.587774 0.000000 -0.808948
vn -0.951047 0.000000 -0.308948
vn -0.951047 0.000000 -0.308948
vn -0.951047 0.000000 -0.308948
vn -0.951047 0.000000 -0.308948
vn -0.587774 0.000000 0.808948
vn -0.587774 0.000000 0.808948
vn -0.587774 0.000000 0.808948
vn -0.587774 0.000000 0.808948
vn 0.587774 0.000000 0.808948
vn 0.587774 0.000000 0.808948
vn 0.587774 0.000000 0.808948
vn 0.587774 0.000000 0.808948
vn -0.587774 0.000000 -0.808948
vn -0.587774 0.000000 -0.808948
vn -0.587774 0.000000 -0.808948
vn -0.587774 0.000000 -0.808948
vn -0.587774 0.000000 0.808948
vn -0.587774 0.000000 0.808948
vn -0.587774 0.000000 0.808948
vn -0.587774 0.000000 0.808948
vn 0.587774 0.000000 0.808948
vn 0.587774 0.000000 0.808948
vn 0.587774 0.000000 0.808948
vn 0.587774 0.000000 0.808948
vn 0.951047 0.000000 -0.308948
vn 0.951047 0.000000 -0.308948
vn 0.951047 0.000000 -0.308948
vn 0.951047 0.000000 -0.308948
vn -0.951047 0.000000 0.308948
vn -0.951047 0.000000 0.308948
vn -0.951047 0.000000 0.308948
vn -0.951047 0.000000 0.308948
vn 0.587774 0.000000 0.808948
vn 0.587774 0.000000 0.808948
vn 0.587774 0.000000 0.808948
vn 0.587774 0.000000 0.808948
vn 0.951047 0.000000 -0.308948
vn 0.951047 0.000000 -0.308948
vn 0.951047 0.000000 -0.308948
vn 0.951047 0.000000 -0.308948
vn 0.000000 0.000000 -1.000000
vn 0.000000 0.000000 -1.000000
vn 0.000000 0.000000 -1.000000
vn 0.000000 0.000000 -1.000000
vn 0.000000 0.000000 1.000000
vn 0.000000 0.000000 1.000000
vn 0.000000 0.000000 1.000000
vn 0.000000 0.000000 1.000000
vn 0.951047 0.000000 -0.308948
vn 0.951047 0.000000 -0.308948
vn 0.951047 0.000000 -0.308948
vn 0.951047 0.000000 -0.308948
vn 0.000000 0.000000 -1.000000
vn 0.000000 0.000000 -1.000000
vn 0.000000 0.000000 -1.000000
vn 0.000000 0.000000 -1.000000
vn -0.951047 0.000000 -0.308948
vn -0.951047 0.000000 -0.308948
vn -0.951047 0.000000 -0.308948
vn -0.951047 0.000000 -0.308948
vn 0.951047 0.000000 0.308948
vn 0.951047 0.000000 0.308948
vn 0.951047 0.000000 0.308948
vn 0.951047 0.000000 0.308948
vn 0.000000 0.000000 -1.000000
vn 0.000000 0.000000 -1.000000
vn 0.000000 0.000000 -1.000000
vn 0.000000 0.000000 -1.000000
vn -0.951047 0.000000 -0.308948
vn -0.951047 0.000000 -0.308948
vn -0.951047 0.000000 -0.308948
vn -0.951047 0.000000 -0.308948
vn -0.587774 0.000000 0.808948
vn -0.587774 0.000000 0.808948
vn -0.587774 0.000000 0.808948
vn -0.587774 0.000000 0.808948
# 117 uv coords
vt 0.304195 0.645497
vt 0.276637 0.621287
vt 0.561837 0.709925
vt 0.526357 0.711969
vt 0.488548 0.713788
vt 0.448873 0.712287
vt 0.408680 0.704636
vt 0.370245 0.689906
vt 0.335162 0.669520
vt 0.315439 0.626649
vt 0.289565 0.598342
vt 0.565404 0.683571
vt 0.528688 0.687848
vt 0.491265 0.693044
vt 0.452703 0.694750
vt 0.413639 0.688851
vt 0.376947 0.673891
vt 0.343936 0.652925
vt 0.354076 0.554050
vt 0.337883 0.524729
vt 0.573465 0.593326
vt 0.540867 0.603120
vt 0.508717 0.613245
vt 0.476386 0.622314
vt 0.438132 0.621492
vt 0.404080 0.603041
vt 0.373046 0.582755
vt 0.456055 0.526008
vt 0.335175 0.452554
vt 0.372408 0.425465
vt 0.371505 0.440075
vt 0.349834 0.456928
vt 0.139717 0.424954
vt 0.175559 0.453859
vt 0.161218 0.456787
vt 0.139307 0.440245
vt 0.221649 0.422049
vt 0.207009 0.465704
vt 0.199277 0.453276
vt 0.207170 0.426981
vt 0.276384 0.445016
vt 0.230353 0.443873
vt 0.239955 0.432825
vt 0.267409 0.432629
vt 0.302947 0.463221
vt 0.290499 0.418891
vt 0.303882 0.424818
vt 0.312146 0.450999
vt 0.154881 0.480606
vt 0.116460 0.448758
vt 0.137472 0.408276
vt 0.192050 0.446699
vt 0.236507 0.414146
vt 0.219455 0.478678
vt 0.174740 0.455616
vt 0.191245 0.408519
vt 0.288310 0.456889
vt 0.221617 0.459585
vt 0.230497 0.410065
vt 0.280366 0.411976
vt 0.295107 0.478112
vt 0.272911 0.415164
vt 0.322853 0.409083
vt 0.335697 0.457308
vt 0.318487 0.450383
vt 0.369784 0.407680
vt 0.392856 0.452389
vt 0.352110 0.481203
vt 0.550631 0.967806
vt 0.497356 0.967540
vt 0.442613 0.965490
vt 0.603301 0.966884
vt 0.594150 0.710537
vt 0.386530 0.959107
vt 0.603265 0.685353
vt 0.330413 0.946198
vt 0.610727 0.596229
vt 0.276196 0.926055
vt 0.508961 0.581539
vt 0.530518 0.569840
vt 0.510363 0.540330
vt 0.509927 0.505484
vt 0.565028 0.545945
vt 0.620079 0.560770
vt 0.225499 0.899663
vt 0.178858 0.869182
vt 0.439662 0.596621
vt 0.476508 0.594155
vt 0.473280 0.575799
vt 0.499659 0.561628
vt 0.434222 0.474319
vt 0.135297 0.837297
vt 0.093184 0.805261
vt 0.250511 0.601514
vt 0.387238 0.560924
vt 0.413227 0.576258
vt 0.424692 0.564486
vt 0.450629 0.579614
vt 0.370597 0.462804
vt 0.407990 0.498709
vt 0.372141 0.507878
vt 0.398554 0.521730
vt 0.259918 0.573692
vt 0.318893 0.494044
vt 0.375801 0.529997
vt 0.406607 0.549659
vt 0.629525 0.430055
vt 0.670449 0.396916
vt 0.700984 0.476462
vt 0.615895 0.480922
vt 0.634767 0.530083
vt 0.678931 0.558765
vt 0.731519 0.556008
vt 0.772443 0.522869
vt 0.786072 0.472003
vt 0.767201 0.422841
vt 0.723037 0.394160
# 90 polygons
usemtl initialShadingGroup
s 1
g mesh_towerBigA
f 1/86/1 2/92/2 12/2/3 11/1/4
s 2
f 2/92/5 3/93/6 13/94/7 12/2/8
s 3
f 3/72/9 4/69/10 14/3/11 13/73/12
s 4
f 4/69/13 5/70/14 15/4/15 14/3/16
s 5
f 5/70/17 6/71/18 16/5/19 15/4/20
s 6
f 6/71/21 7/74/22 17/6/23 16/5/24
s 7
f 7/74/25 8/76/26 18/7/27 17/6/28
s 8
f 8/76/29 9/78/30 19/8/31 18/7/32
s 9
f 9/78/33 10/85/34 20/9/35 19/8/36
s 10
f 10/85/37 1/86/38 11/1/39 20/9/40
s 11
f 2/117/41 1/116/42 21/109/43
f 3/108/44 2/117/41 21/109/43
f 4/107/45 3/108/44 21/109/43
f 5/110/46 4/107/45 21/109/43
f 6/111/47 5/110/46 21/109/43
f 7/112/48 6/111/47 21/109/43
f 8/113/49 7/112/48 21/109/43
f 9/114/50 8/113/49 21/109/43
f 10/115/51 9/114/50 21/109/43
f 1/116/42 10/115/51 21/109/43
s 12
f 52/102/52 53/100/53 54/28/54
f 53/100/53 55/91/55 54/28/54
f 55/91/55 56/82/56 54/28/54
f 56/82/56 57/81/57 54/28/54
f 57/81/57 58/90/58 54/28/54
f 58/90/58 59/89/59 54/28/54
f 59/89/59 60/98/60 54/28/54
f 60/98/60 61/97/61 54/28/54
f 61/97/61 62/106/62 54/28/54
f 62/106/62 52/102/52 54/28/54
s 1
f 11/1/4 12/2/3 23/11/63 22/10/64
s 2
f 12/2/8 13/94/7 24/103/65 23/11/66
s 3
f 13/73/12 14/3/11 25/12/67 24/75/68
s 4
f 14/3/16 15/4/15 26/13/69 25/12/70
s 5
f 15/4/20 16/5/19 27/14/71 26/13/72
s 6
f 16/5/24 17/6/23 28/15/73 27/14/74
s 7
f 17/6/28 18/7/27 29/16/75 28/15/76
s 8
f 18/7/32 19/8/31 30/17/77 29/16/78
s 9
f 19/8/36 20/9/35 31/18/79 30/17/80
s 10
f 20/9/40 11/1/39 22/10/81 31/18/82
s off
f 22/10/83 23/11/84 33/20/85 32/19/86
f 23/11/87 24/103/88 34/104/89 33/20/90
f 24/75/91 25/12/92 35/21/93 34/77/94
f 25/12/95 26/13/96 36/22/97 35/21/98
f 26/13/99 27/14/100 37/23/101 36/22/102
f 27/14/103 28/15/104 38/24/105 37/23/106
f 28/15/107 29/16/108 39/25/109 38/24/110
f 29/16/111 30/17/112 40/26/113 39/25/114
f 30/17/115 31/18/116 41/27/117 40/26/118
f 31/18/119 22/10/120 32/19/121 41/27/122
f 32/19/123 33/20/124 43/101/125 42/105/126
f 33/20/127 34/104/128 44/99/129 43/101/130
f 34/77/131 35/21/132 45/83/133 44/84/134
f 35/21/135 36/22/136 46/80/137 45/83/138
f 36/22/139 37/23/140 47/79/141 46/80/142
f 37/23/143 38/24/144 48/88/145 47/79/146
f 38/24/147 39/25/148 49/87/149 48/88/150
f 39/25/151 40/26/152 50/96/153 49/87/154
f 40/26/155 41/27/156 51/95/157 50/96/158
f 41/27/159 32/19/160 42/105/161 51/95/162
f 63/29/163 64/30/164 65/31/165 66/32/166
f 43/101/167 44/99/168 55/91/169 53/100/170
f 67/33/171 68/34/172 69/35/173 70/36/174
f 45/83/175 46/80/176 57/81/177 56/82/178
f 71/37/179 72/38/180 73/39/181 74/40/182
f 47/79/183 48/88/184 59/89/185 58/90/186
f 75/41/187 76/42/188 77/43/189 78/44/190
f 49/87/191 50/96/192 61/97/193 60/98/194
f 79/45/195 80/46/196 81/47/197 82/48/198
f 51/95/199 42/105/200 52/102/201 62/106/202
f 42/65/203 43/66/204 64/30/205 63/29/206
f 43/66/207 53/67/208 65/31/209 64/30/210
f 53/67/211 52/68/212 66/32/213 65/31/214
f 52/68/215 42/65/216 63/29/217 66/32/218
f 44/51/219 45/52/220 68/34/221 67/33/222
f 45/52/223 56/49/224 69/35/225 68/34/226
f 56/49/227 55/50/228 70/36/229 69/35/230
f 55/50/231 44/51/232 67/33/233 70/36/234
f 46/53/235 47/54/236 72/38/237 71/37/238
f 47/54/239 58/55/240 73/39/241 72/38/242
f 58/55/243 57/56/244 74/40/245 73/39/246
f 57/56/247 46/53/248 71/37/249 74/40/250
f 48/57/251 49/58/252 76/42/253 75/41/254
f 49/58/255 60/59/256 77/43/257 76/42/258
f 60/59/259 59/60/260 78/44/261 77/43/262
f 59/60/263 48/57/264 75/41/265 78/44/266
f 50/61/267 51/62/268 80/46/269 79/45/270
f 51/62/271 62/63/272 81/47/273 80/46/274
f 62/63/275 61/64/276 82/48/277 81/47/278
f 61/64/279 50/61/280 79/45/281 82/48/282
# h3dt: 82 117 282 90
