# author: headus 3D tools
#  using: ply2obj v1.9
#   from: uvlayout v2.10.00
# 44 vertices
v 1.0730000 -0.0030000 -0.2720000
v -0.5666909 -0.0030000 -0.2769169
v 1.0730000 1.0849880 -0.1263570
v -0.5666909 1.0849880 -0.1283121
v 1.0719121 1.0849880 0.0678950
v -0.5677789 1.0849880 0.0659400
v 1.0719121 -0.0030000 0.2164999
v -0.5677789 -0.0030000 0.2115829
v -0.1843290 1.0849880 -0.1278560
v -0.1854159 1.0849880 0.0663959
v -0.1854159 -0.0030000 0.2127290
v -0.1843290 -0.0030000 -0.2757699
v -0.0253921 1.0849880 -0.1276671
v -0.0264790 1.0849880 0.0665849
v -0.0264790 -0.0030000 0.2132060
v -0.0253921 -0.0030000 -0.2752930
v 0.1335440 1.0849880 -0.1274770
v 0.1324571 1.0849880 0.0667749
v 0.1324571 -0.0030000 0.2136830
v 0.1335440 -0.0030000 -0.2748170
v 0.2924811 1.0849880 -0.1272881
v 0.2913940 1.0849880 0.0669639
v 0.2913940 -0.0030000 0.2141590
v 0.2924811 -0.0030000 -0.2743400
v 0.4514170 1.0849880 -0.1270981
v 0.4503301 1.0849880 0.0671540
v 0.4503301 -0.0030000 0.2146360
v 0.4514170 -0.0030000 -0.2738640
v 0.6103541 1.0849880 -0.1269090
v 0.6092671 1.0849880 0.0673439
v 0.6092671 -0.0030000 0.2151120
v 0.6103541 -0.0030000 -0.2733870
v -0.0253921 1.2344332 -0.1276671
v -0.1843290 1.2344332 -0.1278560
v -0.1854159 1.2344332 0.0663959
v -0.0264790 1.2344332 0.0665849
v 0.2924811 1.2344332 -0.1272881
v 0.1335440 1.2344332 -0.1274770
v 0.1324571 1.2344332 0.0667749
v 0.2913940 1.2344332 0.0669639
v 0.6103541 1.2344332 -0.1269090
v 0.4514170 1.2344332 -0.1270981
v 0.4503301 1.2344332 0.0671540
v 0.6092671 1.2344332 0.0673439
# 120 normals
vn 0.002014 0.132973 -0.991027
vn 0.002014 0.133156 -0.991027
vn 0.001984 0.128731 -0.991668
vn 0.002014 0.132973 -0.991027
vn 0.000000 1.000000 0.000000
vn 0.000000 1.000000 0.000000
vn 0.000000 1.000000 0.000000
vn 0.000000 1.000000 0.000000
vn -0.002014 0.134865 0.990783
vn -0.001984 0.130318 0.991455
vn -0.002014 0.134743 0.990783
vn -0.002014 0.134865 0.990783
vn 0.000000 -1.000000 0.000000
vn 0.000000 -1.000000 0.000000
vn 0.000000 -1.000000 0.000000
vn 0.000000 -1.000000 0.000000
vn -0.999969 0.000000 -0.003113
vn -0.999969 0.000000 -0.003113
vn -0.999969 0.000000 -0.003113
vn -0.999969 0.000000 -0.003113
vn 0.999969 0.000000 0.003113
vn 0.999969 0.000000 0.003113
vn 0.999969 0.000000 0.003113
vn 0.999969 0.000000 0.003113
vn 0.000000 1.000000 0.000000
vn 0.000000 1.000000 0.000000
vn 0.000000 1.000000 0.000000
vn 0.000000 1.000000 0.000000
vn -0.002014 0.133095 0.991027
vn -0.001953 0.127968 0.991760
vn -0.002014 0.132912 0.991027
vn -0.002014 0.132912 0.991027
vn 0.000000 -1.000000 0.000000
vn 0.000000 -1.000000 0.000000
vn 0.000000 -1.000000 0.000000
vn 0.000000 -1.000000 0.000000
vn 0.001953 0.129738 -0.991516
vn 0.002014 0.134804 -0.990783
vn 0.002014 0.135018 -0.990753
vn 0.002014 0.135018 -0.990753
vn 0.000000 1.000000 0.000000
vn 0.000000 1.000000 0.000000
vn 0.000000 1.000000 0.000000
vn 0.000000 1.000000 0.000000
vn -0.002014 0.133553 0.990966
vn -0.001953 0.125038 0.992126
vn 0.000000 -1.000000 0.000000
vn 0.000000 -1.000000 0.000000
vn 0.001953 0.125954 -0.992004
vn 0.002014 0.134377 -0.990844
vn 0.000000 1.000000 0.000000
vn 0.000000 1.000000 0.000000
vn 0.000000 1.000000 0.000000
vn 0.000000 1.000000 0.000000
vn -0.002014 0.133767 0.990936
vn -0.001953 0.125343 0.992095
vn 0.000000 -1.000000 0.000000
vn 0.000000 -1.000000 0.000000
vn 0.001953 0.125649 -0.992034
vn 0.002014 0.134194 -0.990875
vn 0.000000 1.000000 0.000000
vn 0.000000 1.000000 0.000000
vn 0.000000 1.000000 0.000000
vn 0.000000 1.000000 0.000000
vn -0.002014 0.134041 0.990905
vn -0.001953 0.125526 0.992065
vn 0.000000 -1.000000 0.000000
vn 0.000000 -1.000000 0.000000
vn 0.001953 0.125465 -0.992065
vn 0.002014 0.133858 -0.990905
vn 0.000000 1.000000 0.000000
vn 0.000000 1.000000 0.000000
vn 0.000000 1.000000 0.000000
vn 0.000000 1.000000 0.000000
vn -0.002014 0.134255 0.990844
vn -0.001953 0.125832 0.992034
vn 0.000000 -1.000000 0.000000
vn 0.000000 -1.000000 0.000000
vn 0.001953 0.125160 -0.992095
vn 0.002014 0.133675 -0.990936
vn 0.000000 1.000000 0.000000
vn 0.000000 1.000000 0.000000
vn 0.000000 1.000000 0.000000
vn 0.000000 1.000000 0.000000
vn 0.001129 0.000000 -0.999969
vn 0.001129 0.000000 -0.999969
vn -0.999969 0.000000 -0.005524
vn -0.999969 0.000000 -0.005524
vn -0.999969 0.000000 -0.005524
vn -0.999969 0.000000 -0.005524
vn -0.001129 0.000000 0.999969
vn -0.001129 0.000000 0.999969
vn 0.999969 0.000000 0.005524
vn 0.999969 0.000000 0.005524
vn 0.999969 0.000000 0.005524
vn 0.999969 0.000000 0.005524
vn 0.001129 0.000000 -0.999969
vn 0.001129 0.000000 -0.999969
vn -0.999969 0.000000 -0.005524
vn -0.999969 0.000000 -0.005524
vn -0.999969 0.000000 -0.005524
vn -0.999969 0.000000 -0.005524
vn -0.001129 0.000000 0.999969
vn -0.001129 0.000000 0.999969
vn 0.999969 0.000000 0.005524
vn 0.999969 0.000000 0.005524
vn 0.999969 0.000000 0.005524
vn 0.999969 0.000000 0.005524
vn 0.001129 0.000000 -0.999969
vn 0.001129 0.000000 -0.999969
vn -0.999969 0.000000 -0.005524
vn -0.999969 0.000000 -0.005524
vn -0.999969 0.000000 -0.005524
vn -0.999969 0.000000 -0.005524
vn -0.001129 0.000000 0.999969
vn -0.001129 0.000000 0.999969
vn 0.999969 0.000000 0.005524
vn 0.999969 0.000000 0.005524
vn 0.999969 0.000000 0.005524
vn 0.999969 0.000000 0.005524
# 59 uv coords
vt 0.635263 0.694656
vt 0.853444 0.674342
vt 0.635564 0.702542
vt 0.804397 0.672381
vt 0.809389 0.711540
vt 0.770915 0.674761
vt 0.775236 0.715132
vt 0.757159 0.674703
vt 0.759441 0.715373
vt 0.724053 0.676076
vt 0.726104 0.716814
vt 0.714154 0.676209
vt 0.715589 0.716780
vt 0.682170 0.676857
vt 0.683530 0.718029
vt 0.780818 0.683542
vt 0.795770 0.682915
vt 0.798920 0.703350
vt 0.783736 0.704523
vt 0.733655 0.685364
vt 0.748331 0.684937
vt 0.749753 0.706178
vt 0.735006 0.706625
vt 0.691196 0.686325
vt 0.705303 0.686137
vt 0.706188 0.707524
vt 0.692063 0.707960
vt 0.718927 0.516701
vt 0.755819 0.514392
vt 0.680544 0.523429
vt 0.821788 0.511356
vt 0.640008 0.534005
vt 0.897368 0.519676
vt 0.867574 0.699364
vt 0.597831 0.549808
vt 0.730603 0.874007
vt 0.691249 0.870580
vt 0.904110 0.463664
vt 0.830346 0.453314
vt 0.831005 0.877978
vt 0.767826 0.871868
vt 0.553059 0.571210
vt 0.649580 0.862635
vt 0.907851 0.441189
vt 0.834320 0.429284
vt 0.489933 0.649777
vt 0.606125 0.849145
vt 0.912035 0.418485
vt 0.838700 0.405409
vt 0.492634 0.754785
vt 0.559970 0.830038
vt 0.916539 0.395549
vt 0.843356 0.381649
vt 0.921252 0.372383
vt 0.848171 0.357952
vt 0.926079 0.348998
vt 0.853060 0.334259
vt 0.940214 0.280006
vt 0.867216 0.265157
# 42 polygons
usemtl initialShadingGroup
s 1
g mesh_wallA
f 1/46/1 32/42/2 29/14/3 3/1/4
s off
f 3/1/5 29/14/6 30/15/7 5/3/8
s 2
f 5/3/9 30/15/10 31/51/11 7/50/12
s 3
f 7/58/13 31/56/14 32/57/15 1/59/16
s off
f 2/31/17 8/33/18 6/34/19 4/2/20
f 7/50/21 1/46/22 3/1/23 5/3/24
f 9/4/25 4/2/26 6/34/27 10/5/28
s 2
f 11/41/29 10/5/30 6/34/31 8/40/32
s 3
f 12/39/33 11/38/34 8/33/35 2/31/36
s 1
f 9/4/37 12/29/38 2/31/39 4/2/40
s off
f 33/16/41 34/17/42 35/18/43 36/19/44
s 2
f 15/36/45 14/7/46 10/5/30 11/41/29
s 3
f 16/45/47 15/44/48 11/38/34 12/39/33
s 1
f 13/6/49 16/28/50 12/29/38 9/4/37
s off
f 17/8/51 13/6/52 14/7/53 18/9/54
s 2
f 19/37/55 18/9/56 14/7/46 15/36/45
s 3
f 20/49/57 19/48/58 15/44/48 16/45/47
s 1
f 17/8/59 20/30/60 16/28/50 13/6/49
s off
f 37/20/61 38/21/62 39/22/63 40/23/64
s 2
f 23/43/65 22/11/66 18/9/56 19/37/55
s 3
f 24/53/67 23/52/68 19/48/58 20/49/57
s 1
f 21/10/69 24/32/70 20/30/60 17/8/59
s off
f 25/12/71 21/10/72 22/11/73 26/13/74
s 2
f 27/47/75 26/13/76 22/11/66 23/43/65
s 3
f 28/55/77 27/54/78 23/52/68 24/53/67
s 1
f 25/12/79 28/35/80 24/32/70 21/10/69
s off
f 41/24/81 42/25/82 43/26/83 44/27/84
s 2
f 31/51/11 30/15/10 26/13/76 27/47/75
s 3
f 32/57/15 31/56/14 27/54/78 28/55/77
s 1
f 29/14/3 32/42/2 28/35/80 25/12/79
f 13/6/49 9/4/37 34/17/85 33/16/86
s off
f 9/4/87 10/5/88 35/18/89 34/17/90
s 2
f 10/5/30 14/7/46 36/19/91 35/18/92
s off
f 14/7/93 13/6/94 33/16/95 36/19/96
s 1
f 21/10/69 17/8/59 38/21/97 37/20/98
s off
f 17/8/99 18/9/100 39/22/101 38/21/102
s 2
f 18/9/56 22/11/66 40/23/103 39/22/104
s off
f 22/11/105 21/10/106 37/20/107 40/23/108
s 1
f 29/14/3 25/12/79 42/25/109 41/24/110
s off
f 25/12/111 26/13/112 43/26/113 42/25/114
s 2
f 26/13/76 30/15/10 44/27/115 43/26/116
s off
f 30/15/117 29/14/118 41/24/119 44/27/120
# h3dt: 44 59 120 42
