# author: headus 3D tools
#  using: ply2obj v1.9
#   from: uvlayout v2.10.00
# 44 vertices
v 1.0960000 0.0000000 -0.5870000
v -0.4359691 0.0000000 -0.4755080
v 0.8499651 0.4427970 -0.0956730
v -0.4324849 0.5517660 -0.0964570
v 0.8488781 0.4427970 0.0985790
v -0.4335720 0.5517660 0.0977950
v 1.0949131 0.0000000 0.5127643
v -0.5447783 0.0000000 0.5016952
v -0.1614850 0.6795410 -0.0484560
v -0.1623562 0.6795410 0.0797640
v -0.1623562 0.0000000 0.4696951
v -0.1614850 0.0000000 -0.5040650
v -0.0025491 0.6795410 -0.0482660
v -0.0034189 0.6795410 0.0799540
v -0.0034189 0.0000000 0.4707681
v -0.0025491 0.0000000 -0.5029920
v 0.1707369 0.5971270 0.0197230
v 0.2440310 0.6557260 0.2374950
v 0.1553110 0.0000000 0.5918209
v 0.1565450 0.0000000 -0.5933419
v 0.3321810 0.6425580 0.0100510
v 0.3940061 0.7011840 0.2009420
v 0.3140680 0.0000000 0.6973821
v 0.3158070 0.0000000 -0.6418699
v 0.4721380 0.6880400 -0.0499860
v 0.5278691 0.7466800 0.1266220
v 0.4731510 0.0000000 0.6130552
v 0.4747430 0.0000000 -0.6407970
v 0.5906060 0.7335730 -0.1603870
v 0.6463381 0.7922140 0.0162210
v 0.6322671 0.0000000 0.5096411
v 0.6333540 0.0000000 -0.5901229
v -0.0023921 0.7947329 -0.0899300
v -0.1271200 0.7588139 -0.0552540
v -0.1277920 0.8011710 0.0570120
v -0.0034790 0.8633050 0.0918169
v 0.2596761 0.7836100 -0.0522281
v 0.1148150 0.7329670 -0.0077340
v 0.1705460 0.7916080 0.1688750
v 0.3055980 0.8319290 0.0932959
v 0.5224842 0.8726560 -0.1539640
v 0.4315401 0.8465850 -0.0977170
v 0.4600811 0.8766171 -0.0072710
v 0.5606060 0.9127680 -0.0331590
# 120 normals
vn 0.320576 0.631417 -0.705915
vn 0.080541 0.627815 -0.774034
vn 0.068333 0.606360 -0.792163
vn 0.320576 0.631417 -0.705915
vn 0.815357 0.541018 -0.205640
vn 0.815357 0.541018 -0.205640
vn 0.815357 0.541018 -0.205640
vn 0.815357 0.541018 -0.205640
vn 0.218824 0.604102 0.766099
vn 0.278307 0.589422 0.758286
vn 0.362052 0.534365 0.763718
vn 0.218824 0.604102 0.766099
vn 0.000000 -1.000000 0.000000
vn 0.000000 -1.000000 0.000000
vn 0.000000 -1.000000 0.000000
vn 0.000000 -1.000000 0.000000
vn -0.990478 0.100806 -0.092901
vn -0.990478 0.100806 -0.092901
vn -0.990478 0.100806 -0.092901
vn -0.990478 0.100806 -0.092901
vn 0.874168 0.485534 0.001404
vn 0.874168 0.485534 0.001404
vn 0.874168 0.485534 0.001404
vn 0.874168 0.485534 0.001404
vn -0.426143 0.904535 -0.002503
vn -0.426143 0.904535 -0.002503
vn -0.426143 0.904535 -0.002503
vn -0.426143 0.904535 -0.002503
vn -0.030550 0.530489 0.847128
vn -0.032167 0.498230 0.866386
vn -0.042208 0.544040 0.837911
vn -0.042208 0.544040 0.837911
vn 0.000000 -1.000000 0.000000
vn 0.000000 -1.000000 0.000000
vn 0.000000 -1.000000 0.000000
vn 0.000000 -1.000000 0.000000
vn -0.045138 0.528627 -0.847616
vn -0.051975 0.558262 -0.827992
vn -0.101447 0.558384 -0.823323
vn -0.101447 0.558384 -0.823323
vn -0.345266 0.877312 -0.333028
vn -0.345266 0.877312 -0.333028
vn -0.345266 0.877312 -0.333028
vn -0.345266 0.877312 -0.333028
vn -0.357230 0.476225 0.803394
vn -0.159434 0.453183 0.876976
vn 0.000000 -1.000000 0.000000
vn 0.000000 -1.000000 0.000000
vn 0.061375 0.582616 -0.810352
vn 0.069615 0.609656 -0.789446
vn 0.351187 0.908228 -0.227339
vn 0.351187 0.908228 -0.227339
vn 0.351187 0.908228 -0.227339
vn 0.351187 0.908228 -0.227339
vn -0.313343 0.518953 0.795215
vn -0.383324 0.493988 0.780382
vn 0.000000 -1.000000 0.000000
vn 0.000000 -1.000000 0.000000
vn -0.115943 0.613868 -0.780779
vn -0.178569 0.695385 -0.695935
vn -0.374138 0.908899 -0.183635
vn -0.374138 0.908899 -0.183635
vn -0.374138 0.908899 -0.183635
vn -0.374138 0.908899 -0.183635
vn 0.053317 0.545413 0.836324
vn 0.233748 0.534579 0.812122
vn 0.000000 -1.000000 0.000000
vn 0.000000 -1.000000 0.000000
vn -0.220778 0.603949 -0.765672
vn -0.235335 0.674266 -0.699841
vn -0.383721 0.908198 -0.166972
vn -0.383721 0.908198 -0.166972
vn -0.383721 0.908198 -0.166972
vn -0.383721 0.908198 -0.166972
vn 0.374260 0.495910 0.783465
vn 0.477263 0.460477 0.748367
vn 0.000000 -1.000000 0.000000
vn 0.000000 -1.000000 0.000000
vn -0.258835 0.625465 -0.735946
vn -0.246536 0.637154 -0.730178
vn -0.374138 0.908899 -0.183635
vn -0.374138 0.908899 -0.183635
vn -0.374138 0.908899 -0.183635
vn -0.374138 0.908899 -0.183635
vn -0.089330 -0.225874 -0.970030
vn -0.089330 -0.225874 -0.970030
vn -0.946805 0.315693 -0.061619
vn -0.946805 0.315693 -0.061619
vn -0.946805 0.315693 -0.061619
vn -0.946805 0.315693 -0.061619
vn -0.133278 0.050266 0.989776
vn -0.133278 0.050266 0.989776
vn 0.999969 0.000214 0.006165
vn 0.999969 0.000214 0.006165
vn 0.999969 0.000214 0.006165
vn 0.999969 0.000214 0.006165
vn -0.061741 -0.333425 -0.940701
vn -0.061741 -0.333425 -0.940701
vn -0.881615 -0.287646 0.373955
vn -0.881615 -0.287646 0.373955
vn -0.881615 -0.287646 0.373955
vn -0.881615 -0.287646 0.373955
vn 0.129708 0.600348 0.789080
vn 0.129708 0.600348 0.789080
vn 0.881493 0.288073 -0.373924
vn 0.881493 0.288073 -0.373924
vn 0.881493 0.288073 -0.373924
vn 0.881493 0.288073 -0.373924
vn -0.527773 -0.302875 -0.793383
vn -0.527773 -0.302875 -0.793383
vn -0.930843 -0.136239 0.338918
vn -0.930843 -0.136239 0.338918
vn -0.930843 -0.136239 0.338918
vn -0.930843 -0.136239 0.338918
vn 0.206159 0.656900 0.725081
vn 0.206159 0.656900 0.725081
vn 0.816914 0.418391 -0.396692
vn 0.816914 0.418391 -0.396692
vn 0.816914 0.418391 -0.396692
vn 0.816914 0.418391 -0.396692
# 60 uv coords
vt 0.299139 0.552917
vt 0.563008 0.637953
vt 0.564237 0.666852
vt 0.516851 0.635678
vt 0.518174 0.671572
vt 0.481564 0.632342
vt 0.480901 0.669699
vt 0.450705 0.631657
vt 0.442381 0.685812
vt 0.409634 0.623311
vt 0.388146 0.668580
vt 0.377507 0.617681
vt 0.360201 0.659846
vt 0.341170 0.601558
vt 0.488253 0.637988
vt 0.507381 0.641732
vt 0.507247 0.657852
vt 0.493729 0.658532
vt 0.419922 0.640719
vt 0.439636 0.642496
vt 0.427417 0.669459
vt 0.414279 0.660385
vt 0.346035 0.618277
vt 0.356986 0.624493
vt 0.353076 0.635636
vt 0.338401 0.635996
vt 0.467141 0.467484
vt 0.504425 0.481011
vt 0.431273 0.460467
vt 0.541601 0.497038
vt 0.397534 0.458972
vt 0.586292 0.509831
vt 0.321547 0.425611
vt 0.443241 0.823267
vt 0.404520 0.814632
vt 0.641192 0.551800
vt 0.533811 0.803210
vt 0.484099 0.815560
vt 0.318153 0.635513
vt 0.268101 0.573709
vt 0.154208 0.539629
vt 0.366992 0.806085
vt 0.583888 0.791062
vt 0.295941 0.709105
vt 0.287554 0.827286
vt 0.732441 0.710727
vt 0.662535 0.739944
vt 0.684677 0.538708
vt 0.763405 0.700427
vt 0.708749 0.530458
vt 0.800387 0.710022
vt 0.727723 0.505206
vt 0.835953 0.716375
vt 0.749455 0.486524
vt 0.858546 0.690078
vt 0.774810 0.475937
vt 0.879116 0.660746
vt 0.804064 0.473555
vt 0.958095 0.629049
vt 0.882473 0.442086
# 42 polygons
usemtl initialShadingGroup
s 1
g mesh_wallC
f 1/33/1 32/31/2 29/14/3 3/1/4
s off
f 3/1/5 29/14/6 30/39/7 5/40/8
s 2
f 5/44/9 30/39/10 31/42/11 7/45/12
s 3
f 7/59/13 31/57/14 32/58/15 1/60/16
s off
f 2/36/17 8/47/18 6/3/19 4/2/20
f 7/41/21 1/33/22 3/1/23 5/40/24
f 9/4/25 4/2/26 6/3/27 10/5/28
s 2
f 11/43/29 10/5/30 6/3/31 8/47/32
s 3
f 12/48/33 11/46/34 8/47/35 2/36/36
s 1
f 9/4/37 12/32/38 2/36/39 4/2/40
s off
f 33/15/41 34/16/42 35/17/43 36/18/44
s 2
f 15/37/45 14/7/46 10/5/30 11/43/29
s 3
f 16/50/47 15/49/48 11/46/34 12/48/33
s 1
f 13/6/49 16/30/50 12/32/38 9/4/37
s off
f 17/8/51 13/6/52 14/7/53 18/9/54
s 2
f 19/38/55 18/9/56 14/7/46 15/37/45
s 3
f 20/52/57 19/51/58 15/49/48 16/50/47
s 1
f 17/8/59 20/28/60 16/30/50 13/6/49
s off
f 37/19/61 38/20/62 39/21/63 40/22/64
s 2
f 23/34/65 22/11/66 18/9/56 19/38/55
s 3
f 24/54/67 23/53/68 19/51/58 20/52/57
s 1
f 21/10/69 24/27/70 20/28/60 17/8/59
s off
f 25/12/71 21/10/72 22/11/73 26/13/74
s 2
f 27/35/75 26/13/76 22/11/66 23/34/65
s 3
f 28/56/77 27/55/78 23/53/68 24/54/67
s 1
f 25/12/79 28/29/80 24/27/70 21/10/69
s off
f 41/23/81 42/24/82 43/25/83 44/26/84
s 2
f 31/42/11 30/39/10 26/13/76 27/35/75
s 3
f 32/58/15 31/57/14 27/55/78 28/56/77
s 1
f 29/14/3 32/31/2 28/29/80 25/12/79
f 13/6/49 9/4/37 34/16/85 33/15/86
s off
f 9/4/87 10/5/88 35/17/89 34/16/90
s 2
f 10/5/30 14/7/46 36/18/91 35/17/92
s off
f 14/7/93 13/6/94 33/15/95 36/18/96
s 1
f 21/10/69 17/8/59 38/20/97 37/19/98
s off
f 17/8/99 18/9/100 39/21/101 38/20/102
s 2
f 18/9/56 22/11/66 40/22/103 39/21/104
s off
f 22/11/105 21/10/106 37/19/107 40/22/108
s 1
f 29/14/3 25/12/79 42/24/109 41/23/110
s off
f 25/12/111 26/13/112 43/25/113 42/24/114
s 2
f 26/13/76 30/39/10 44/26/115 43/25/116
s off
f 30/39/117 29/14/118 41/23/119 44/26/120
# h3dt: 44 60 120 42
